PathFileType	4	(X/Y/Z)	C:/Users/opensim2020/Desktop/walking_exp_matlab/subject02_walking12_straight_02.trc	
DataRate	CameraRate	NumFrames	NumMarkers	Units	OrigDataRate	OrigDataStartFrame	OrigNumFrames	
100.00	100.00	4	42	mm	100.00	1053	149	
Frame#	Time	LFHD			RFHD			LBHD			RBHD			C7			T10			CLAV			STRN			RBAK			LSHO			LUPA			LELB			LFRM			LWRA			LWRB			LFIN			RSHO			RUPA			RELB			RFRM			RWRA			RWRB			RFIN			LASI			RASI			LPSI			RPSI			LTHI			LKNE			LTIB			LANK			LHEE			LTOE			RTHI			RKNE			RTIB			RANK			RHEE			RTOE			*39			*40			*41			
		X1	Y1	Z1	X2	Y2	Z2	X3	Y3	Z3	X4	Y4	Z4	X5	Y5	Z5	X6	Y6	Z6	X7	Y7	Z7	X8	Y8	Z8	X9	Y9	Z9	X10	Y10	Z10	X11	Y11	Z11	X12	Y12	Z12	X13	Y13	Z13	X14	Y14	Z14	X15	Y15	Z15	X16	Y16	Z16	X17	Y17	Z17	X18	Y18	Z18	X19	Y19	Z19	X20	Y20	Z20	X21	Y21	Z21	X22	Y22	Z22	X23	Y23	Z23	X24	Y24	Z24	X25	Y25	Z25	X26	Y26	Z26	X27	Y27	Z27	X28	Y28	Z28	X29	Y29	Z29	X30	Y30	Z30	X31	Y31	Z31	X32	Y32	Z32	X33	Y33	Z33	X34	Y34	Z34	X35	Y35	Z35	X36	Y36	Z36	X37	Y37	Z37	X38	Y38	Z38	X39	Y39	Z39	X40	Y40	Z40	X41	Y41	Z41	X42	Y42	Z42	

38	0.370	1470.38159	390.30560	1732.78796	1330.42932	408.91617	1703.95374	1501.36475	511.91833	1649.47449	1364.47241	542.22705	1619.25098	1436.59351	570.40088	1508.94043	1435.61780	624.32886	1233.09485	1446.52051	432.94498	1439.42065	1443.34546	380.87881	1267.07104	1381.70886	629.32489	1332.46875	1613.18689	499.30334	1492.28284	1724.54761	506.05511	1311.19409	1776.30383	485.46716	1179.41394	1807.18726	395.12427	1082.37476	1791.27380	269.47552	1027.08997	1822.76587	306.74817	998.60211	1838.47192	249.30449	972.12537	1250.29944	499.37173	1464.34033	1176.24878	553.95099	1277.22705	1168.65381	564.03412	1130.15503	1152.42249	561.21771	1010.27368	1172.73535	540.72766	876.00256	1141.64746	588.16779	883.09747	1141.46472	567.70923	812.82068	1567.85583	404.66248	955.00739	1318.88477	383.68576	966.55951	1479.65039	605.60699	1015.02533	1362.43408	602.18030	1022.77264	1631.42053	500.88046	650.37415	1621.79822	539.10803	468.94070	1614.64832	699.54089	377.78220	1579.34705	855.32867	223.96872	1518.82263	882.96588	227.56435	1611.58289	810.54425	75.38012	1251.71887	394.30145	668.20367	1307.64563	355.50534	466.60574	1307.07312	385.70871	279.52829	1354.03149	399.75082	90.13962	1411.45374	435.52252	39.41485	1342.07104	247.91734	38.48459	1391.37952	508.39777	1784.13220	-3357.13184	2845.85425	1034.29138			 
39	0.380	1469.30200	377.98404	1735.58740	1329.50024	396.78088	1706.16577	1500.94470	499.75342	1652.52844	1364.15051	530.17511	1621.77344	1436.10864	558.28455	1511.67053	1435.19727	612.21130	1235.86389	1446.93201	420.89389	1442.18701	1444.12158	368.68759	1269.76062	1380.49451	617.03729	1335.43335	1613.39722	488.24335	1495.04480	1722.35291	497.06778	1312.02673	1771.65100	478.47620	1178.96033	1801.74854	391.09283	1078.78711	1785.73206	267.03851	1019.50629	1817.09546	305.69891	992.20343	1832.01794	248.94060	963.00409	1250.00610	485.26361	1466.95715	1175.71851	537.86456	1279.16138	1167.56970	547.82629	1132.31580	1151.17090	543.59711	1012.61951	1171.46606	522.15967	878.63379	1139.95349	569.12598	885.15961	1139.60547	547.78192	815.33307	1568.67944	393.28793	957.79364	1318.90967	372.06451	968.20892	1478.79492	594.05988	1017.91394	1361.84265	590.51929	1025.62695	1631.10120	481.59473	652.52307	1620.88550	513.47119	471.93668	1611.59155	673.36841	380.19955	1576.39026	828.93506	225.76912	1515.46936	856.59052	227.86734	1612.90027	782.01947	79.26470	1251.79163	386.91165	669.27222	1307.33350	351.56583	466.79318	1306.40076	383.13577	279.69992	1353.43726	399.72000	90.57387	1411.29504	435.72635	39.43382	1341.91235	248.11871	38.45624	1390.01013	495.98029	1786.48120	-3357.34302	2846.03052	1034.34424			 
40	0.390	1468.83789	366.02325	1738.53149	1329.11096	384.80304	1708.62085	1500.55139	487.67331	1655.58533	1363.87366	518.15729	1624.38806	1435.73230	546.17310	1514.35938	1434.73035	600.21002	1238.63477	1447.35657	408.85931	1445.00403	1444.68677	356.40131	1272.34119	1379.07825	604.35718	1338.43286	1613.45984	477.03159	1497.73328	1720.56213	488.48062	1313.32275	1767.26965	471.78210	1178.97180	1796.48877	387.57840	1075.50391	1780.18140	265.45657	1011.87024	1811.22839	305.23199	985.78821	1825.77759	249.87064	954.05377	1250.25098	472.08536	1469.82642	1174.59692	522.43335	1281.82434	1166.82288	530.88922	1134.75439	1150.05188	525.79077	1015.18121	1169.86328	502.50394	881.61096	1138.47656	549.84253	887.49176	1137.24292	526.79547	817.82153	1569.99426	382.38177	960.99573	1318.90613	360.64499	969.91925	1477.80127	582.63129	1020.85004	1361.21912	579.02911	1028.39282	1630.91943	462.19901	655.19537	1620.09473	488.35077	474.99100	1608.61267	647.71375	382.56641	1573.44543	802.03204	226.56567	1512.22632	829.52606	226.79860	1613.91980	752.02924	82.48519	1252.03967	379.47928	670.39026	1307.09070	348.29129	466.59293	1306.04297	381.01724	279.79611	1353.47083	399.61011	90.80308	1411.15540	435.93390	39.43079	1341.79077	248.34766	38.59777	1389.38562	483.99368	1789.28796	-3360.43481	2845.24536	1034.16980			 
41	0.400	1468.15552	353.86005	1740.93384	1328.57825	372.59418	1710.85486	1500.31750	475.66251	1658.58728	1363.65417	506.19879	1627.01636	1435.48682	534.11639	1517.10645	1434.28528	588.26196	1241.44128	1447.82019	396.85101	1447.71301	1445.37341	344.47345	1274.93457	1378.45728	592.60956	1341.78857	1613.93188	466.06693	1500.48474	1718.79480	479.60339	1314.54700	1762.92810	464.96078	1179.06250	1791.26599	384.40372	1072.28967	1774.65149	264.80353	1004.11230	1805.06311	305.32797	979.19482	1819.08801	251.43762	944.71698	1250.24292	458.37106	1472.78149	1174.08984	507.25848	1284.42578	1165.65051	514.39136	1137.30310	1148.87964	507.57520	1017.80426	1168.61694	482.87677	884.52905	1136.74902	529.80658	889.81787	1135.56738	505.91739	820.79926	1571.47510	371.75430	964.54163	1318.90601	349.38358	971.72467	1476.77551	571.35437	1023.82288	1360.59546	567.63013	1030.96716	1630.96802	442.86087	658.23346	1619.39905	463.92767	477.77826	1605.59863	622.29181	384.75296	1571.07043	774.44891	226.32133	1509.36963	801.75012	224.56563	1613.85608	720.71899	84.33585	1252.16321	372.00589	671.18365	1306.76880	345.52802	466.44473	1305.94312	379.25854	279.76843	1353.37048	399.52527	90.91340	1411.11462	436.08914	39.44354	1341.59509	248.43222	38.44013	1388.58643	471.69339	1791.85718	-3360.27686	2845.17505	1034.24878			 
